<svg width="314" height="232" viewBox="0 0 314 232" fill="none" xmlns="http://www.w3.org/2000/svg">
<g clip-path="url(#clip0_2137_225)">
<path d="M73.0239 66.4608C74.5765 61.0595 77.593 56.1949 81.7387 52.4071C85.8845 48.6193 90.9971 46.0565 96.509 45.0032C102.021 43.9499 107.716 44.4474 112.963 46.4404C118.21 48.4334 122.802 51.8439 126.231 56.2934C129.66 60.7428 131.79 66.0569 132.386 71.6458C132.982 77.2347 132.019 82.8796 129.606 87.9539C127.192 93.0281 123.422 97.333 118.714 100.391C114.006 103.448 108.543 105.139 102.934 105.275L97.5758 107.533L105.169 135.773L66.012 143.163L50.0974 102.132C50.0974 102.132 73.1975 102.565 79.0948 94.5894C75.8403 90.7689 73.5823 86.1997 72.5229 81.2909C71.4634 76.382 71.6356 71.2866 73.0239 66.4608Z" fill="#FFB6B6"/>
<path d="M214.132 207.935L153.187 231.999L93.998 223.244L156.358 204.872L214.132 207.935Z" fill="#090814"/>
<path d="M156.695 198.012L98.3819 168.858L93.1382 182.075L148.652 214.066C150.022 218.427 153.433 222.498 158.323 224.956C166.88 229.257 176.697 226.993 180.251 219.9C183.804 212.807 179.748 203.57 171.191 199.269C166.301 196.811 161.004 196.505 156.695 198.011L156.695 198.012Z" fill="#FFB6B6"/>
<path d="M57.7395 101.52C57.7395 101.52 63.4295 131.079 83.298 130.467C103.167 129.855 99.5004 115.768 99.5004 115.768L118.267 126.332C118.267 126.332 126.4 137.815 126.4 152.205L132.208 180.069L140.461 188.642L116.006 207.932L103.473 190.173L90.9401 228.141L0 232L1.68113 153.738C1.68113 153.738 6.57219 116.076 27.3574 108.421C48.1427 100.766 57.7379 101.521 57.7379 101.521L57.7395 101.52Z" fill="#E6E6E6"/>
<path d="M108.322 54.2116C108.322 54.2116 120.239 65.0121 132.441 63.3069C144.642 61.6017 146.912 57.3384 146.912 55.6328C146.912 55.6328 146.912 56.2011 143.507 57.338L142.088 45.1163C142.088 45.1163 140.385 48.3218 134.143 49.4193C134.143 49.4193 139.534 47.1632 134.143 42.7292C134.143 42.7292 131.305 45.1167 128.751 45.1167C128.751 45.1167 114.564 25.7896 86.4726 38.0113V32.9327L83.9207 39.4321L80.6259 39.1451L77.3948 38.8635C77.3948 38.8635 70.3001 47.1062 70.8674 52.7907C71.4347 58.4753 60.6707 87.0267 79.2471 95.7739C79.2471 95.7739 74.8397 70.4135 82.501 76.382C90.1623 82.3505 94.9858 72.9712 94.9858 72.9712L108.322 54.2128L108.322 54.2116Z" fill="#090814"/>
<path d="M109.925 205.282L44.7651 203.923L41.6133 226.356L109.513 223.239C112.615 226.594 117.437 228.811 122.906 228.937C132.477 229.157 140.383 222.904 140.565 214.969C140.747 207.035 133.136 200.425 123.565 200.205C118.095 200.079 113.177 202.073 109.926 205.282H109.925Z" fill="#FFB6B6"/>
<path d="M45.0886 155.575C45.0886 155.575 47.2283 169.048 40.8092 173.641C40.8092 173.641 42.9489 190.175 37.7524 195.38C37.7524 195.38 47.3021 195.768 45.4313 200.78C45.4313 200.78 59.4563 198.442 57.6221 204.26C57.6221 204.26 44.643 219.864 47.7701 229.974L5.35001 227.837L0.615204 203.371" fill="#E6E6E6"/>
<path d="M310.859 39.8458H252.599C250.864 39.8458 249.458 41.2544 249.458 42.9919V86.0899C249.458 87.8275 250.864 89.236 252.599 89.236H310.859C312.594 89.236 314 87.8275 314 86.0899V42.9919C314 41.2544 312.594 39.8458 310.859 39.8458Z" fill="#F2F2F2"/>
<path d="M310.793 42.3002H252.665V86.7821H310.793V42.3002Z" fill="white"/>
<path d="M282.75 75.2942H282.773C286.708 75.0887 290.418 73.3894 293.146 70.5419C295.875 67.6944 297.419 63.9126 297.463 59.9657C297.507 56.0188 296.049 52.2033 293.384 49.2952C290.72 46.3872 287.049 44.605 283.12 44.3113C283.071 44.3074 283.022 44.3137 282.976 44.3297C282.93 44.3457 282.888 44.371 282.852 44.4041C282.817 44.4366 282.788 44.4762 282.768 44.5203C282.749 44.5644 282.738 44.6122 282.738 44.6605L282.399 74.9359C282.399 74.9826 282.407 75.0289 282.425 75.0723C282.442 75.1156 282.468 75.1551 282.5 75.1884C282.533 75.2217 282.572 75.2483 282.615 75.2665C282.658 75.2847 282.704 75.2943 282.75 75.2946L282.75 75.2942Z" fill="#F9B42A"/>
<path d="M270.595 49.3178C270.716 49.3193 270.831 49.3685 270.916 49.4547L281.32 60.112C281.361 60.1546 281.394 60.2052 281.417 60.2606C281.439 60.3161 281.45 60.3755 281.449 60.4353L281.287 74.9221C281.287 74.9843 281.273 75.0457 281.248 75.1025C281.223 75.1593 281.186 75.2102 281.14 75.2521C281.094 75.2942 281.04 75.3264 280.981 75.3467C280.922 75.367 280.859 75.3749 280.797 75.3701C277.904 75.1531 275.129 74.1324 272.783 72.4225C270.437 70.7127 268.614 68.3814 267.518 65.6907C266.422 63.0001 266.097 60.0566 266.579 57.191C267.061 54.3255 268.332 51.6514 270.248 49.4692C270.289 49.4222 270.34 49.3842 270.397 49.3576C270.453 49.3311 270.515 49.3164 270.578 49.3147L270.595 49.3178Z" fill="#E6E6E6"/>
<path d="M281.176 44.1874C281.292 44.1888 281.403 44.2343 281.487 44.3148C281.532 44.3577 281.568 44.4095 281.592 44.4669C281.616 44.5243 281.628 44.586 281.627 44.6483L281.481 57.7194C281.48 57.8096 281.453 57.8976 281.402 57.9721C281.351 58.0467 281.28 58.1045 281.196 58.1383C281.113 58.172 281.021 58.1801 280.933 58.1615C280.845 58.1429 280.764 58.0986 280.701 58.034L271.622 48.7327C271.578 48.6884 271.545 48.6359 271.522 48.5782C271.5 48.5205 271.49 48.4589 271.492 48.3971C271.494 48.3353 271.509 48.2746 271.536 48.2187C271.562 48.1628 271.6 48.1129 271.646 48.072C274.287 45.7438 277.634 44.3758 281.147 44.1893L281.176 44.1874Z" fill="#090814"/>
<path d="M276.499 81.5729C276.493 82.1243 276.323 82.6615 276.012 83.1166C275.701 83.5716 275.263 83.9241 274.752 84.1294C274.241 84.3347 273.681 84.3836 273.142 84.27C272.603 84.1563 272.11 83.8852 271.725 83.491C271.34 83.0967 271.081 82.5969 270.979 82.0549C270.878 81.5128 270.94 80.9529 271.156 80.4458C271.372 79.9387 271.734 79.5073 272.195 79.2061C272.656 78.9049 273.196 78.7474 273.747 78.7536C274.485 78.7619 275.19 79.0636 275.706 79.5923C276.222 80.121 276.507 80.8334 276.499 81.5729Z" fill="#F9B42A"/>
<path d="M284.451 81.6626C284.445 82.214 284.276 82.7512 283.965 83.2063C283.654 83.6613 283.215 84.0138 282.704 84.2191C282.193 84.4244 281.633 84.4733 281.094 84.3597C280.555 84.2461 280.062 83.975 279.677 83.5807C279.293 83.1864 279.033 82.6866 278.932 82.1446C278.83 81.6026 278.892 81.0426 279.108 80.5355C279.324 80.0284 279.686 79.597 280.147 79.2958C280.608 78.9946 281.148 78.8371 281.699 78.8433C282.437 78.8516 283.142 79.1533 283.658 79.682C284.174 80.2107 284.459 80.9232 284.451 81.6626Z" fill="#090814"/>
<path d="M292.404 81.7518C292.397 82.3032 292.228 82.8404 291.917 83.2955C291.606 83.7506 291.168 84.103 290.657 84.3083C290.146 84.5137 289.585 84.5626 289.047 84.4489C288.508 84.3353 288.015 84.0642 287.63 83.6699C287.245 83.2756 286.986 82.7759 286.884 82.2338C286.783 81.6918 286.844 81.1318 287.061 80.6248C287.277 80.1177 287.639 79.6862 288.1 79.385C288.561 79.0838 289.101 78.9264 289.651 78.9325C290.39 78.9408 291.094 79.2425 291.61 79.7712C292.127 80.3 292.412 81.0124 292.404 81.7518Z" fill="#E6E6E6"/>
<path d="M219.461 0H170.951C169.216 0 167.81 1.40854 167.81 3.14607V38.7828C167.81 40.5203 169.216 41.9289 170.951 41.9289H219.461C221.195 41.9289 222.601 40.5203 222.601 38.7828V3.14607C222.601 1.40854 221.195 0 219.461 0Z" fill="#F2F2F2"/>
<path d="M219.879 2.08386H170.533V39.8462H219.879V2.08386Z" fill="white"/>
<path d="M178.905 14.4951C180.037 14.4951 180.954 13.5762 180.954 12.4427C180.954 11.3092 180.037 10.3903 178.905 10.3903C177.774 10.3903 176.856 11.3092 176.856 12.4427C176.856 13.5762 177.774 14.4951 178.905 14.4951Z" fill="#090814"/>
<path d="M211.826 10.8457C212.194 10.8457 212.547 10.9924 212.808 11.2534C213.069 11.5144 213.215 11.8683 213.215 12.2375C213.215 12.6066 213.069 12.9606 212.808 13.2216C212.547 13.4826 212.194 13.6292 211.826 13.6292H190.277C189.908 13.6292 189.555 13.4826 189.294 13.2216C189.034 12.9606 188.887 12.6066 188.887 12.2375C188.887 11.8683 189.034 11.5144 189.294 11.2534C189.555 10.9924 189.908 10.8457 190.277 10.8457H211.826ZM211.826 10.5048H190.277C189.818 10.5048 189.378 10.6873 189.054 11.0123C188.729 11.3372 188.547 11.7779 188.547 12.2375C188.547 12.697 188.729 13.1377 189.054 13.4627C189.378 13.7876 189.818 13.9702 190.277 13.9702H211.826C212.284 13.9702 212.724 13.7876 213.049 13.4627C213.373 13.1377 213.555 12.697 213.555 12.2375C213.555 11.7779 213.373 11.3372 213.049 11.0123C212.724 10.6873 212.284 10.5048 211.826 10.5048Z" fill="#3F3D56"/>
<path d="M203.323 13.9702H187.101C186.642 13.9702 186.202 13.7876 185.878 13.4627C185.553 13.1377 185.371 12.697 185.371 12.2375C185.371 11.7779 185.553 11.3372 185.878 11.0123C186.202 10.6873 186.642 10.5048 187.101 10.5048H203.323C203.782 10.5048 204.222 10.6873 204.546 11.0123C204.87 11.3372 205.053 11.7779 205.053 12.2375C205.053 12.697 204.87 13.1377 204.546 13.4627C204.222 13.7876 203.782 13.9702 203.323 13.9702H203.323Z" fill="#F9B42A"/>
<path d="M178.905 23.0174C180.037 23.0174 180.954 22.0985 180.954 20.965C180.954 19.8315 180.037 18.9126 178.905 18.9126C177.774 18.9126 176.856 19.8315 176.856 20.965C176.856 22.0985 177.774 23.0174 178.905 23.0174Z" fill="#090814"/>
<path d="M211.826 19.3676C212.194 19.3676 212.547 19.5142 212.808 19.7752C213.069 20.0362 213.215 20.3902 213.215 20.7593C213.215 21.1284 213.069 21.4824 212.808 21.7434C212.547 22.0044 212.194 22.1511 211.826 22.1511H190.277C189.908 22.1511 189.555 22.0044 189.294 21.7434C189.034 21.4824 188.887 21.1284 188.887 20.7593C188.887 20.3902 189.034 20.0362 189.294 19.7752C189.555 19.5142 189.908 19.3676 190.277 19.3676H211.826ZM211.826 19.0266H190.277C189.818 19.0266 189.378 19.2092 189.054 19.5341C188.729 19.8591 188.547 20.2998 188.547 20.7593C188.547 21.2189 188.729 21.6596 189.054 21.9845C189.378 22.3095 189.818 22.492 190.277 22.492H211.826C212.284 22.492 212.724 22.3095 213.049 21.9845C213.373 21.6596 213.555 21.2189 213.555 20.7593C213.555 20.2998 213.373 19.8591 213.049 19.5341C212.724 19.2092 212.284 19.0266 211.826 19.0266Z" fill="#3F3D56"/>
<path d="M209.448 22.4925H187.101C186.642 22.4925 186.202 22.3099 185.878 21.985C185.553 21.6601 185.371 21.2193 185.371 20.7598C185.371 20.3003 185.553 19.8595 185.878 19.5346C186.202 19.2097 186.642 19.0271 187.101 19.0271H209.448C209.907 19.0271 210.347 19.2097 210.671 19.5346C210.996 19.8595 211.178 20.3003 211.178 20.7598C211.178 21.2193 210.996 21.6601 210.671 21.985C210.347 22.3099 209.907 22.4925 209.448 22.4925Z" fill="#F9B42A"/>
<path d="M178.905 31.5394C180.037 31.5394 180.954 30.6205 180.954 29.487C180.954 28.3535 180.037 27.4346 178.905 27.4346C177.774 27.4346 176.856 28.3535 176.856 29.487C176.856 30.6205 177.774 31.5394 178.905 31.5394Z" fill="#090814"/>
<path d="M211.826 27.8899C212.194 27.8899 212.547 28.0365 212.808 28.2975C213.069 28.5585 213.215 28.9125 213.215 29.2817C213.215 29.6508 213.069 30.0048 212.808 30.2658C212.547 30.5268 212.194 30.6734 211.826 30.6734H190.277C189.908 30.6734 189.555 30.5268 189.294 30.2658C189.034 30.0048 188.887 29.6508 188.887 29.2817C188.887 28.9125 189.034 28.5585 189.294 28.2975C189.555 28.0365 189.908 27.8899 190.277 27.8899H211.826ZM211.826 27.549H190.277C189.818 27.549 189.378 27.7315 189.054 28.0564C188.729 28.3814 188.547 28.8221 188.547 29.2817C188.547 29.7412 188.729 30.1819 189.054 30.5069C189.378 30.8318 189.818 31.0143 190.277 31.0143H211.826C212.284 31.0143 212.724 30.8318 213.049 30.5069C213.373 30.1819 213.555 29.7412 213.555 29.2817C213.555 28.8221 213.373 28.3814 213.049 28.0564C212.724 27.7315 212.284 27.549 211.826 27.549Z" fill="#3F3D56"/>
<path d="M196.176 31.0147H187.101C186.642 31.0147 186.202 30.8322 185.878 30.5072C185.553 30.1823 185.371 29.7416 185.371 29.282C185.371 28.8225 185.553 28.3818 185.878 28.0568C186.202 27.7319 186.642 27.5493 187.101 27.5493H196.176C196.635 27.5493 197.075 27.7319 197.399 28.0568C197.724 28.3818 197.906 28.8225 197.906 29.282C197.906 29.7416 197.724 30.1823 197.399 30.5072C197.075 30.8322 196.635 31.0147 196.176 31.0147Z" fill="#F9B42A"/>
<path d="M296.735 105.478H202.182C200.447 105.478 199.041 106.886 199.041 108.624V163.635C199.041 165.373 200.447 166.782 202.182 166.782H296.735C298.469 166.782 299.876 165.373 299.876 163.635V108.624C299.876 106.886 298.469 105.478 296.735 105.478Z" fill="#F2F2F2"/>
<path d="M297.871 107.308H201.045V164.812H297.871V107.308Z" fill="white"/>
<path d="M285.863 153.798H215.28C215.221 153.798 215.165 153.775 215.124 153.733C215.082 153.692 215.059 153.635 215.059 153.577V119.689C215.058 119.659 215.063 119.629 215.073 119.602C215.084 119.574 215.1 119.548 215.12 119.527C215.141 119.505 215.166 119.488 215.193 119.476C215.221 119.464 215.25 119.458 215.28 119.458C215.31 119.458 215.339 119.464 215.367 119.476C215.394 119.488 215.419 119.505 215.439 119.527C215.46 119.548 215.476 119.574 215.487 119.602C215.497 119.629 215.502 119.659 215.501 119.689V153.356H285.863C285.893 153.354 285.923 153.359 285.951 153.37C285.979 153.38 286.004 153.396 286.026 153.417C286.047 153.438 286.064 153.462 286.076 153.49C286.088 153.517 286.094 153.547 286.094 153.577C286.094 153.607 286.088 153.636 286.076 153.664C286.064 153.691 286.047 153.716 286.026 153.737C286.004 153.757 285.979 153.773 285.951 153.784C285.923 153.794 285.893 153.799 285.863 153.798Z" fill="#090814"/>
<path d="M230.359 151.364H223.939C223.766 151.364 223.599 151.295 223.476 151.172C223.353 151.048 223.284 150.881 223.284 150.707V141.843C223.284 141.668 223.353 141.501 223.476 141.378C223.599 141.255 223.766 141.186 223.939 141.186H230.359C230.533 141.186 230.7 141.255 230.823 141.378C230.946 141.501 231.015 141.668 231.015 141.843V150.706C231.015 150.881 230.946 151.048 230.823 151.171C230.7 151.294 230.533 151.364 230.359 151.364Z" fill="#F9B42A"/>
<path d="M242.067 151.364H235.647C235.473 151.364 235.306 151.295 235.183 151.172C235.061 151.048 234.991 150.882 234.991 150.707V133.435C234.991 133.261 235.061 133.094 235.183 132.971C235.306 132.847 235.473 132.778 235.647 132.778H242.067C242.24 132.778 242.407 132.847 242.53 132.971C242.653 133.094 242.722 133.261 242.722 133.435V150.707C242.722 150.881 242.653 151.048 242.53 151.171C242.407 151.295 242.241 151.364 242.067 151.364Z" fill="#F9B42A"/>
<path d="M253.775 151.364H247.355C247.181 151.364 247.014 151.295 246.891 151.172C246.768 151.048 246.699 150.881 246.699 150.707V141.843C246.699 141.668 246.768 141.501 246.891 141.378C247.014 141.255 247.181 141.186 247.355 141.186H253.775C253.948 141.186 254.115 141.255 254.238 141.378C254.361 141.501 254.43 141.668 254.43 141.843V150.706C254.43 150.881 254.361 151.048 254.238 151.171C254.115 151.294 253.949 151.364 253.775 151.364Z" fill="#F9B42A"/>
<path d="M265.482 151.364H259.062C258.892 151.368 258.728 151.304 258.605 151.186C258.482 151.069 258.411 150.907 258.406 150.737V130.086C258.411 129.916 258.482 129.754 258.605 129.637C258.728 129.519 258.892 129.455 259.062 129.459H265.482C265.652 129.455 265.816 129.519 265.939 129.637C266.062 129.754 266.133 129.916 266.138 130.086V150.737C266.133 150.907 266.062 151.069 265.939 151.186C265.816 151.304 265.652 151.368 265.482 151.364Z" fill="#F9B42A"/>
<path d="M277.19 151.364H270.77C270.596 151.364 270.429 151.295 270.306 151.172C270.183 151.048 270.114 150.882 270.114 150.707V124.142C270.114 123.967 270.183 123.801 270.306 123.677C270.429 123.554 270.596 123.485 270.77 123.485H277.19C277.364 123.485 277.53 123.554 277.653 123.677C277.776 123.801 277.845 123.967 277.845 124.142V150.707C277.845 150.882 277.776 151.048 277.653 151.172C277.53 151.295 277.364 151.364 277.19 151.364Z" fill="#F9B42A"/>
<path d="M227.149 138.531C227.881 138.531 228.475 137.936 228.475 137.203C228.475 136.47 227.881 135.875 227.149 135.875C226.417 135.875 225.824 136.47 225.824 137.203C225.824 137.936 226.417 138.531 227.149 138.531Z" fill="#090814"/>
<path d="M238.857 129.901C239.589 129.901 240.182 129.307 240.182 128.574C240.182 127.84 239.589 127.246 238.857 127.246C238.125 127.246 237.531 127.84 237.531 128.574C237.531 129.307 238.125 129.901 238.857 129.901Z" fill="#090814"/>
<path d="M250.565 138.531C251.297 138.531 251.89 137.936 251.89 137.203C251.89 136.47 251.297 135.875 250.565 135.875C249.833 135.875 249.239 136.47 249.239 137.203C249.239 137.936 249.833 138.531 250.565 138.531Z" fill="#090814"/>
<path d="M262.272 125.697C263.004 125.697 263.597 125.103 263.597 124.37C263.597 123.637 263.004 123.042 262.272 123.042C261.54 123.042 260.947 123.637 260.947 124.37C260.947 125.103 261.54 125.697 262.272 125.697Z" fill="#090814"/>
<path d="M273.98 120.829C274.712 120.829 275.305 120.235 275.305 119.502C275.305 118.768 274.712 118.174 273.98 118.174C273.248 118.174 272.654 118.768 272.654 119.502C272.654 120.235 273.248 120.829 273.98 120.829Z" fill="#090814"/>
<path d="M250.592 137.5L238.857 128.696L227.282 137.38L227.017 137.026L238.857 128.143L250.537 136.906L262.143 124.183L262.189 124.164L273.897 119.439L274.062 119.85L262.402 124.556L250.592 137.5Z" fill="#090814"/>
</g>
<defs>
<clipPath id="clip0_2137_225">
<rect width="314" height="232" fill="white"/>
</clipPath>
</defs>
</svg>
