<svg width="190" height="232" viewBox="0 0 190 232" fill="none" xmlns="http://www.w3.org/2000/svg">
<g clip-path="url(#clip0_2137_270)">
<path d="M183.137 232H0.227607C0.101931 232 0 231.855 0 231.674C0 231.494 0.101931 231.349 0.227607 231.349H183.137C183.263 231.349 183.365 231.494 183.365 231.674C183.365 231.855 183.263 232 183.137 232Z" fill="#CBCBCB"/>
<path d="M133.508 55.085H132.236V20.1942C132.237 17.5423 131.715 14.9163 130.702 12.4663C129.689 10.0162 128.203 7.79005 126.331 5.91485C124.459 4.03965 122.236 2.55215 119.79 1.53728C117.344 0.522405 114.722 3.80864e-05 112.074 0L38.2667 0C32.9192 7.69174e-05 27.7908 2.12766 24.0096 5.91473C20.2284 9.7018 18.1041 14.8381 18.104 20.1939V211.61C18.104 216.966 20.2283 222.103 24.0095 225.89C27.7907 229.677 32.9192 231.804 38.2667 231.805H112.074C117.422 231.805 122.55 229.677 126.331 225.89C130.113 222.103 132.237 216.966 132.237 211.61V79.921H133.509L133.508 55.085Z" fill="#3F3D56"/>
<path d="M127.945 20.3357V211.469C127.947 213.448 127.56 215.408 126.805 217.237C126.051 219.066 124.944 220.728 123.548 222.128C122.153 223.528 120.495 224.64 118.67 225.399C116.846 226.158 114.89 226.549 112.914 226.551H38.7248C36.7487 226.552 34.7918 226.164 32.9656 225.408C31.1394 224.652 29.4799 223.543 28.0816 222.144C26.6833 220.746 25.5738 219.085 24.8163 217.257C24.0588 215.429 23.6682 213.47 23.6668 211.491V20.3357C23.6654 18.3566 24.0532 16.3966 24.8081 14.5676C25.563 12.7386 26.6702 11.0765 28.0664 9.67606C29.4627 8.27563 31.1207 7.16435 32.9458 6.40568C34.7709 5.64702 36.7273 5.25581 38.7033 5.2544H47.721C47.2779 6.34227 47.1087 7.5226 47.2285 8.69139C47.3482 9.86017 47.7531 10.9815 48.4075 11.9566C49.0619 12.9317 49.9458 13.7307 50.9812 14.283C52.0166 14.8353 53.1717 15.1241 54.3448 15.124H96.6302C97.8033 15.1241 98.9584 14.8353 99.9938 14.283C101.029 13.7307 101.913 12.9317 102.567 11.9566C103.222 10.9815 103.627 9.86017 103.746 8.69139C103.866 7.5226 103.697 6.34227 103.254 5.2544H112.887C114.863 5.25261 116.82 5.64057 118.646 6.39614C120.471 7.15171 122.131 8.26008 123.529 9.65798C124.927 11.0559 126.037 12.7159 126.795 14.5433C127.553 16.3707 127.943 18.3297 127.945 20.3084V20.3357Z" fill="white"/>
<path d="M187.798 138.176C186.53 136.662 185.01 135.634 183.646 135.238L167.598 117.069C167.598 117.069 166.258 100.155 165.185 94.2491C164.113 88.3428 156.875 89.9536 156.875 89.9536L157.679 106.867L162.237 125.123L181.016 141.09C181.361 141.718 181.767 142.312 182.227 142.861C184.512 145.587 187.611 146.747 189.15 145.453C190.688 144.158 190.084 140.901 187.799 138.176H187.798Z" fill="#FFB6B6"/>
<path d="M110.712 138.176C111.981 136.662 113.501 135.634 114.865 135.238L130.913 117.069C130.913 117.069 132.253 100.155 133.325 94.2491C134.397 88.3428 141.636 89.9536 141.636 89.9536L140.832 106.867L136.275 125.123L117.496 141.09C117.151 141.718 116.746 142.312 116.285 142.861C114 145.587 110.901 146.747 109.363 145.453C107.824 144.158 108.429 140.901 110.713 138.176H110.712Z" fill="#FFB6B6"/>
<path d="M147.418 87.672L148.726 80.5043L153.823 80.1562L155.347 90.0365L147.418 87.672Z" fill="#FFB6B6"/>
<path d="M127.502 205.097L120.71 204.708L121.601 225.586L126.203 225.85L127.502 205.097Z" fill="#FFB6B6"/>
<path d="M120.739 218.985L123.461 220.062L123.458 221.494C123.458 221.494 124.114 219.837 127.638 219.475L128.059 220.864C128.059 220.864 129.425 222.227 129.191 224.689L128.293 231.285L125.636 231.231L125.207 226.642C125.207 226.642 124.475 225.6 121.103 230.549C121.103 230.549 117.388 231.361 111.636 229.687C111.271 229.604 110.943 229.402 110.703 229.114C110.463 228.826 110.324 228.467 110.307 228.092C110.297 227.874 110.371 227.659 110.512 227.492C110.653 227.325 110.852 227.218 111.069 227.191C112.538 226.854 113.972 227.281 114.921 226.263C115.869 225.245 120.739 218.985 120.739 218.985Z" fill="#2F2E41"/>
<path d="M163.956 205.097L157.164 204.708L158.055 225.586L162.657 225.85L163.956 205.097Z" fill="#FFB6B6"/>
<path d="M157.285 219.7L160.004 220.777L160.001 222.209C160.001 222.209 160.657 220.552 164.179 220.19L164.599 221.578C164.599 221.578 165.965 222.942 165.731 225.403L164.833 231.999L162.177 231.946L161.748 227.356C161.748 227.356 161.017 226.315 157.646 231.264C157.646 231.264 153.934 232.076 148.185 230.402C147.819 230.319 147.492 230.117 147.252 229.829C147.012 229.541 146.872 229.182 146.856 228.807C146.846 228.588 146.92 228.374 147.061 228.207C147.202 228.04 147.401 227.933 147.618 227.906C149.086 227.569 150.519 227.996 151.467 226.978C152.415 225.96 157.285 219.7 157.285 219.7Z" fill="#2F2E41"/>
<path d="M151.596 84.7255C156.038 84.7255 159.638 81.1196 159.638 76.6715C159.638 72.2234 156.038 68.6176 151.596 68.6176C147.155 68.6176 143.555 72.2234 143.555 76.6715C143.555 81.1196 147.155 84.7255 151.596 84.7255Z" fill="#FFB6B6"/>
<path d="M156.156 78.0103C156.156 78.0103 152.621 72.2165 149.081 72.856C147.266 73.1615 145.468 73.5682 143.697 74.0741C143.697 74.0741 142.256 69.4546 147.095 67.2382C147.095 67.2382 141.882 65.4076 149.18 61.7225C156.477 58.0374 161.019 61.6088 161.019 61.6088C161.019 61.6088 165.425 62.8269 158.728 67.5761C158.728 67.5761 164.524 74.1886 158.67 80.5057C158.67 80.5057 159.704 75.6959 158.298 76.682C157.619 77.1797 156.903 77.6242 156.157 78.0117L156.156 78.0103Z" fill="#2F2E41"/>
<path d="M157.01 88.2087L146.02 86.8665L137.577 93.711C137.577 93.711 133.378 105.43 136.505 112.505C136.58 112.674 136.639 124.451 136.639 124.451H159.988C159.988 124.451 159.965 116.435 160.857 113.532C160.935 113.205 161.086 112.9 161.298 112.639C162.638 111.297 165.855 102.706 164.246 98.9474C162.638 95.189 157.01 88.2087 157.01 88.2087Z" fill="#F9B42A"/>
<path d="M136.505 123.914L121.762 170.895L118.545 207.944H127.525L135.164 173.581L145.686 153.689L156.074 210.628H165.137L164.919 133.579L159.971 123.914H136.505Z" fill="#2F2E41"/>
<path d="M149.016 181.684C168.926 181.684 185.066 165.519 185.066 145.578C185.066 125.638 168.926 109.473 149.016 109.473C129.106 109.473 112.966 125.638 112.966 145.578C112.966 165.519 129.106 181.684 149.016 181.684Z" fill="#090814"/>
<path d="M149.016 180.61C168.333 180.61 183.994 164.926 183.994 145.578C183.994 126.23 168.333 110.546 149.016 110.546C129.698 110.546 114.038 126.23 114.038 145.578C114.038 164.926 129.698 180.61 149.016 180.61Z" fill="#F2F2F2"/>
<path d="M158.987 166.086H139.046C137.976 166.071 136.955 165.633 136.207 164.866C135.459 164.098 135.046 163.066 135.058 161.994V157.902C135.058 150.005 141.319 143.581 149.015 143.581C156.711 143.581 162.973 150.005 162.973 157.902V161.994C162.984 163.065 162.571 164.098 161.824 164.865C161.077 165.632 160.056 166.071 158.987 166.086ZM149.015 147.673C143.517 147.673 139.045 152.262 139.045 157.902V161.994H158.989L158.987 157.902C158.987 152.262 154.514 147.673 149.015 147.673Z" fill="#F9B42A"/>
<path d="M139.046 125.071H158.987C160.057 125.085 161.078 125.524 161.826 126.291C162.573 127.058 162.987 128.091 162.975 129.163V133.254C162.975 141.151 156.713 147.576 149.017 147.576C141.322 147.576 135.058 141.151 135.058 133.254V129.163C135.046 128.091 135.459 127.058 136.207 126.291C136.955 125.524 137.976 125.085 139.046 125.071ZM149.015 143.484C154.513 143.484 158.986 138.895 158.986 133.254V129.163H139.043L139.046 133.254C139.046 138.895 143.518 143.484 149.015 143.484Z" fill="#F9B42A"/>
<path d="M137.893 136.514H159.605L158.05 142.667L148.839 144.236L139.193 142.563L137.893 136.514Z" fill="#F9B42A"/>
<path d="M137.893 164.09H159.605L159.125 159.911L148.996 157.123L138.562 159.911L137.893 164.09Z" fill="#F9B42A"/>
<path d="M75.8065 109.758C95.7161 109.758 111.856 93.5927 111.856 73.6521C111.856 53.7116 95.7161 37.5466 75.8065 37.5466C55.8968 37.5466 39.7568 53.7116 39.7568 73.6521C39.7568 93.5927 55.8968 109.758 75.8065 109.758Z" fill="#F9B42A"/>
<path d="M102.51 127.321H49.228C46.6691 127.321 44.5948 129.399 44.5948 131.961V135.442C44.5948 138.005 46.6691 140.082 49.228 140.082H102.51C105.069 140.082 107.143 138.005 107.143 135.442V131.961C107.143 129.399 105.069 127.321 102.51 127.321Z" fill="#F2F2F2"/>
<path d="M103.524 148.493H48.2145C46.2154 148.493 44.5948 150.116 44.5948 152.118C44.5948 154.12 46.2154 155.743 48.2145 155.743H103.524C105.523 155.743 107.143 154.12 107.143 152.118C107.143 150.116 105.523 148.493 103.524 148.493Z" fill="#F2F2F2"/>
<path d="M103.524 159.224H48.2145C46.2154 159.224 44.5948 160.847 44.5948 162.849C44.5948 164.851 46.2154 166.474 48.2145 166.474H103.524C105.523 166.474 107.143 164.851 107.143 162.849C107.143 160.847 105.523 159.224 103.524 159.224Z" fill="#F2F2F2"/>
</g>
<defs>
<clipPath id="clip0_2137_270">
<rect width="190" height="232" fill="white"/>
</clipPath>
</defs>
</svg>
