<svg width="253" height="229" viewBox="0 0 253 229" fill="none" xmlns="http://www.w3.org/2000/svg">
<g clip-path="url(#clip0_2137_302)">
<path d="M174.833 228.423H103.045C92.278 228.423 83.5181 219.679 83.5181 208.93V19.4926C83.5181 8.7444 92.278 0 103.045 0H174.833C185.6 0 194.36 8.7444 194.36 19.4926C195.696 95.565 197.975 180.754 194.36 208.93C194.36 219.679 185.6 228.423 174.833 228.423Z" fill="#3F3D56"/>
<path d="M195.361 69.6815C194.906 69.6815 194.535 70.0514 194.535 70.5062V96.8944C194.535 97.3492 194.906 97.719 195.361 97.719C195.817 97.719 196.187 97.3492 196.187 96.8944V70.5062C196.187 70.0514 195.817 69.6815 195.361 69.6815Z" fill="#3F3D56"/>
<path d="M192.501 19.4927V208.927C192.501 218.283 185.207 225.935 175.984 226.529H175.98C175.843 226.537 175.707 226.546 175.567 226.55C175.323 226.562 175.079 226.566 174.831 226.566C174.831 226.566 173.923 226.5 172.262 226.376C170.585 226.253 168.144 226.067 165.1 225.824C164.187 225.754 163.225 225.676 162.209 225.593C160.185 225.428 157.962 225.247 155.579 225.041C154.629 224.962 153.646 224.876 152.642 224.789C147.512 224.348 141.767 223.832 135.707 223.247C134.683 223.152 133.65 223.053 132.61 222.95C132.337 222.921 85.377 211.137 85.377 208.927V19.4927C85.377 9.74974 93.2868 1.85388 103.047 1.85388H113.596C115.282 1.85388 116.636 3.16504 116.781 4.84317C116.793 4.95451 116.806 5.06582 116.826 5.17715C117.132 6.86353 118.681 8.03863 120.399 8.03863H157.479C159.197 8.03863 160.746 6.86353 161.052 5.17715C161.073 5.06582 161.085 4.95451 161.098 4.84317C161.242 3.16505 162.597 1.85388 164.282 1.85388H174.831C184.592 1.85388 192.501 9.74974 192.501 19.4927Z" fill="white"/>
<path d="M83.1051 49.8903C82.6495 49.8903 82.279 50.2601 82.279 50.7149V57.3119C82.279 57.7667 82.6495 58.1366 83.1051 58.1366C83.5607 58.1366 83.9312 57.7667 83.9312 57.3119V50.7149C83.9312 50.2601 83.5607 49.8903 83.1051 49.8903Z" fill="#3F3D56"/>
<path d="M83.1051 69.6815C82.6495 69.6815 82.279 70.0514 82.279 70.5062V83.2879C82.279 83.7427 82.6495 84.1126 83.1051 84.1126C83.5607 84.1126 83.9312 83.7427 83.9312 83.2879V70.5062C83.9312 70.0514 83.5607 69.6815 83.1051 69.6815Z" fill="#3F3D56"/>
<path d="M83.1051 87.8234C82.6495 87.8234 82.279 88.1932 82.279 88.648V101.43C82.279 101.885 82.6495 102.254 83.1051 102.254C83.5607 102.254 83.9312 101.885 83.9312 101.43V88.648C83.9312 88.1932 83.5607 87.8234 83.1051 87.8234Z" fill="#3F3D56"/>
<path d="M113.325 4.7417H97.4941C97.4174 4.7417 97.3552 4.80378 97.3552 4.88036V6.66461C97.3552 6.74119 97.4174 6.80328 97.4941 6.80328H113.325C113.402 6.80328 113.464 6.74119 113.464 6.66461V4.88036C113.464 4.80378 113.402 4.7417 113.325 4.7417Z" fill="#E6E6E6"/>
<path d="M166.892 6.80329C167.805 6.80329 168.545 6.06489 168.545 5.15402C168.545 4.24316 167.805 3.50476 166.892 3.50476C165.98 3.50476 165.24 4.24316 165.24 5.15402C165.24 6.06489 165.98 6.80329 166.892 6.80329Z" fill="#E6E6E6"/>
<path d="M171.436 6.80329C172.348 6.80329 173.088 6.06489 173.088 5.15402C173.088 4.24316 172.348 3.50476 171.436 3.50476C170.524 3.50476 169.784 4.24316 169.784 5.15402C169.784 6.06489 170.524 6.80329 171.436 6.80329Z" fill="#E6E6E6"/>
<path d="M175.98 6.80329C176.892 6.80329 177.632 6.06489 177.632 5.15402C177.632 4.24316 176.892 3.50476 175.98 3.50476C175.067 3.50476 174.327 4.24316 174.327 5.15402C174.327 6.06489 175.067 6.80329 175.98 6.80329Z" fill="#E6E6E6"/>
<path d="M6.40997 228.468C6.40997 228.763 6.64732 229 6.94288 229H252.467C252.763 229 253 228.763 253 228.468C253 228.173 252.763 227.936 252.467 227.936H6.94288C6.64732 227.936 6.40997 228.173 6.40997 228.468Z" fill="#CCCCCC"/>
<path d="M84.694 224.974L79.659 224.974L77.2639 205.587L84.695 205.588L84.694 224.974Z" fill="#FFB6B6"/>
<path d="M67.4436 224.86C67.2868 225.124 67.2041 225.975 67.2041 226.281C67.2041 227.223 67.9692 227.987 68.913 227.987H84.5056C85.1495 227.987 85.6714 227.466 85.6714 226.823V226.175C85.6714 226.175 86.4428 224.227 84.8547 221.827C84.8547 221.827 82.8809 223.707 79.9316 220.762L79.0619 219.19L72.7662 223.786L69.2767 224.215C68.5132 224.308 67.8363 224.2 67.4436 224.86Z" fill="#2F2E41"/>
<path d="M56.8499 198.047L51.8149 198.031L49.4814 178.637L56.9125 178.661L56.8499 198.047Z" fill="#FFB6B6"/>
<path d="M39.6 197.879C39.4424 198.142 39.3569 198.992 39.356 199.299C39.353 200.241 40.1156 201.007 41.0594 201.01L56.652 201.06C57.2958 201.062 57.8194 200.542 57.8215 199.899L57.8235 199.251C57.8235 199.251 58.6011 197.306 57.0207 194.901C57.0207 194.901 55.0409 196.774 52.101 193.821L51.2362 192.245L44.926 196.821L41.4351 197.239C40.6714 197.33 39.9948 197.22 39.6 197.879Z" fill="#2F2E41"/>
<path d="M77.3505 107.282L71.0813 107.729C71.0813 107.729 49.8576 119.774 48.0664 122.456C46.2752 125.139 43.8123 128.938 46.0513 132.961C48.2903 136.984 46.5862 185.696 46.5862 185.696L57.2854 183.28L64.1404 132.314L78.47 130.303C78.47 130.303 83.3958 140.911 81.6046 149.688C79.8134 158.464 78.9178 163.828 78.9178 163.828L76.6788 215.681L85.4109 215.457L93.2474 167.404L106.681 129.409L89.2172 108.846L77.3505 107.282Z" fill="#2F2E41"/>
<path d="M108.249 52.2998L95.2625 53.6408L93.9191 58.1109L81.3807 64.816L85.4109 92.9774L82.2763 97.8945L83.6197 102.812C83.6197 102.812 80.0373 103.259 80.4851 105.941L72.4247 107.282C72.4247 107.282 83.1155 109.46 85.3827 120.217C87.6499 130.973 106.457 132.314 106.457 132.314L121.235 86.2723L122.578 59.0049L112.279 56.3229L108.249 52.2998Z" fill="#E6E6E6"/>
<path d="M101.405 50.6036C106.98 50.6036 111.5 46.0918 111.5 40.5263C111.5 34.9607 106.98 30.449 101.405 30.449C95.8293 30.449 91.3096 34.9607 91.3096 40.5263C91.3096 46.0918 95.8293 50.6036 101.405 50.6036Z" fill="#FFB6B6"/>
<path d="M96.1581 49.6178C96.1581 49.6178 87.2021 49.1708 88.0977 42.0187C85.881 34.4025 87.8431 29.4574 94.8147 27.7145C94.8147 27.7145 96.6059 27.2675 97.0537 27.2675C102.944 27.2675 106.01 29.0555 106.01 29.0555C106.01 29.0555 105.562 27.2851 106.01 27.7233C106.458 28.1615 106.905 29.0555 106.905 29.0555C106.905 29.0555 111.383 31.2905 111.383 35.7606C111.383 40.2307 111.383 38.4426 111.383 38.4426C111.383 38.4426 110.488 38.4426 109.592 35.7606C108.697 33.0785 102.898 34.8666 102.898 34.8666L103.323 35.7606L101.98 35.3136L100.636 36.6546L99.7405 36.2076C99.7405 36.2076 96.1581 36.2076 96.6059 36.2076C97.0537 36.2076 96.7417 39.2454 96.7417 39.2454L93.4713 42.9127L97.0537 49.6178H96.1581Z" fill="#2F2E41"/>
<path d="M48.4431 102.97C45.8936 104.359 44.5446 106.798 45.4301 108.417C46.3155 110.037 49.1001 110.224 51.6496 108.835C52.7656 108.227 53.6515 107.417 54.2207 106.564L64.9496 100.543L62.012 95.5774L51.7472 102.04C50.7201 102.056 49.5591 102.362 48.4431 102.97Z" fill="#FFB6B6"/>
<path d="M84.6245 65.0246C84.6245 65.0246 80.4187 63.4261 78.9696 65.3502C77.5205 67.2743 67.948 90.6218 67.948 90.6218L53.9032 97.9437L57.8527 104.809L75.9381 98.7987L87.8705 77.0145L84.6245 65.0246Z" fill="#E6E6E6"/>
<path d="M217.25 141.7V189.083C217.25 193.273 213.835 196.682 209.637 196.682H92.3136C88.116 196.682 84.701 193.273 84.701 189.083V141.7C84.701 137.51 88.116 134.101 92.3136 134.101H209.637C213.835 134.101 217.25 137.51 217.25 141.7Z" fill="white"/>
<path d="M217.25 141.7V189.083C217.25 193.273 213.835 196.682 209.637 196.682H92.3136C88.116 196.682 84.701 193.273 84.701 189.083V141.7C84.701 137.51 88.116 134.101 92.3136 134.101H209.637C213.835 134.101 217.25 137.51 217.25 141.7ZM209.637 195.788C213.347 195.788 216.354 192.786 216.354 189.083V165.195C216.354 148.516 202.81 134.995 186.101 134.995H92.3136C88.604 134.995 85.5966 137.997 85.5966 141.7V189.083C85.5966 192.786 88.604 195.788 92.3136 195.788H209.637Z" fill="#3F3D56"/>
<path d="M137.367 162.728H122.043C121.657 162.728 121.342 163.042 121.342 163.428C121.342 163.813 121.657 164.127 122.043 164.127H137.367C137.753 164.127 138.068 163.813 138.068 163.428C138.068 163.042 137.753 162.728 137.367 162.728Z" fill="#F9B42A"/>
<path d="M160.653 162.728H145.329C144.942 162.728 144.628 163.042 144.628 163.428C144.628 163.813 144.942 164.127 145.329 164.127H160.653C161.039 164.127 161.353 163.813 161.353 163.428C161.353 163.042 161.039 162.728 160.653 162.728Z" fill="#F9B42A"/>
<path d="M137.367 170.375H122.043C121.657 170.375 121.342 170.688 121.342 171.074C121.342 171.46 121.657 171.774 122.043 171.774H137.367C137.753 171.774 138.068 171.46 138.068 171.074C138.068 170.688 137.753 170.375 137.367 170.375Z" fill="#F9B42A"/>
<path d="M160.653 170.375H145.329C144.942 170.375 144.628 170.688 144.628 171.074C144.628 171.46 144.942 171.774 145.329 171.774H160.653C161.039 171.774 161.353 171.46 161.353 171.074C161.353 170.688 161.039 170.375 160.653 170.375Z" fill="#F9B42A"/>
<path d="M184.639 171.074C184.639 170.688 184.325 170.375 183.938 170.375H168.614C168.228 170.375 167.914 170.688 167.914 171.074C167.914 171.46 168.228 171.774 168.614 171.774H183.938C184.325 171.774 184.639 171.46 184.639 171.074Z" fill="#F9B42A"/>
<path d="M128.411 156.623C128.797 156.623 129.112 156.309 129.112 155.923C129.112 155.538 128.797 155.224 128.411 155.224H113.087C112.701 155.224 112.386 155.538 112.386 155.923C112.386 156.309 112.701 156.623 113.087 156.623H128.411Z" fill="#F9B42A"/>
<path d="M173.54 156.338H188.864C189.25 156.338 189.565 156.024 189.565 155.639C189.565 155.253 189.25 154.939 188.864 154.939H173.54C173.154 154.939 172.839 155.253 172.839 155.639C172.839 156.024 173.154 156.338 173.54 156.338Z" fill="#F9B42A"/>
<path d="M134.867 156.485H166.637C167.023 156.485 167.337 156.172 167.337 155.786C167.337 155.4 167.023 155.087 166.637 155.087H134.867C134.48 155.087 134.166 155.4 134.166 155.786C134.166 156.172 134.48 156.485 134.867 156.485Z" fill="#F9B42A"/>
<path d="M147.367 177.322H132.043C131.656 177.322 131.342 177.636 131.342 178.021C131.342 178.407 131.656 178.721 132.043 178.721H147.367C147.753 178.721 148.067 178.407 148.067 178.021C148.067 177.636 147.753 177.322 147.367 177.322Z" fill="#F9B42A"/>
<path d="M196.858 141.343V188.726C196.858 192.916 193.443 196.325 189.245 196.325H141.778C137.581 196.325 134.166 192.916 134.166 188.726V141.343C134.166 137.153 137.581 133.744 141.778 133.744H189.245C193.443 133.744 196.858 137.153 196.858 141.343Z" fill="white"/>
<path d="M196.858 141.343V188.726C196.858 192.916 193.443 196.325 189.245 196.325H141.778C137.581 196.325 134.166 192.916 134.166 188.726V141.343C134.166 137.153 137.581 133.744 141.778 133.744H189.245C193.443 133.744 196.858 137.153 196.858 141.343ZM186.301 195.431C191.637 195.431 195.962 191.113 195.962 185.786V164.837C195.962 148.159 182.418 134.638 165.709 134.638H141.779C138.069 134.638 135.062 137.64 135.062 141.343V182.115C135.062 189.469 141.034 195.431 148.401 195.431L186.301 195.431Z" fill="#3F3D56"/>
<path d="M171.831 153.096H156.507C156.12 153.096 155.806 152.782 155.806 152.397C155.806 152.011 156.12 151.697 156.507 151.697H171.831C172.217 151.697 172.531 152.011 172.531 152.397C172.531 152.782 172.217 153.096 171.831 153.096Z" fill="#F9B42A"/>
<path d="M171.831 168.01H156.507C156.12 168.01 155.806 167.696 155.806 167.31C155.806 166.925 156.12 166.611 156.507 166.611H171.831C172.217 166.611 172.531 166.925 172.531 167.31C172.531 167.696 172.217 168.01 171.831 168.01Z" fill="#F9B42A"/>
<path d="M164.218 188.572H148.894C148.508 188.572 148.193 188.258 148.193 187.873C148.193 187.487 148.508 187.173 148.894 187.173H164.218C164.604 187.173 164.918 187.487 164.918 187.873C164.918 188.258 164.604 188.572 164.218 188.572Z" fill="#F9B42A"/>
<path d="M180.054 160.558H148.284C147.897 160.558 147.583 160.244 147.583 159.858C147.583 159.473 147.897 159.159 148.284 159.159H180.054C180.44 159.159 180.754 159.473 180.754 159.858C180.754 160.244 180.44 160.558 180.054 160.558Z" fill="#F9B42A"/>
<path d="M187.927 115.087C187.927 100.306 175.411 92.1746 161.115 88.3233C142.787 83.3857 129.363 93.3773 134.304 115.087C135.424 120.008 138.102 125.754 141.418 130.67H167.728C176.517 124.958 187.927 126.56 187.927 115.087Z" fill="#F9B42A"/>
<path d="M160.722 143.03C162.218 140.182 164.116 138.127 166.207 136.563H141.564C147.906 145.606 156.318 151.411 160.722 143.03Z" fill="#F9B42A"/>
<path d="M157.878 99.2633C159.46 99.2633 160.743 100.544 160.743 102.123V107.842H155.014V102.123C155.014 100.544 156.296 99.2633 157.878 99.2633ZM162.175 107.842V102.123C162.175 99.7539 160.251 97.8336 157.878 97.8336C155.505 97.8336 153.582 99.7539 153.582 102.123V107.842C152 107.842 150.717 109.122 150.717 110.701V117.85C150.717 119.429 152 120.709 153.582 120.709H162.175C163.757 120.709 165.039 119.429 165.039 117.85V110.701C165.039 109.122 163.757 107.842 162.175 107.842ZM153.582 109.271H162.175C162.966 109.271 163.607 109.911 163.607 110.701V117.849C163.607 118.639 162.966 119.279 162.175 119.279H153.582C152.791 119.279 152.149 118.639 152.149 117.849V110.701C152.149 109.911 152.791 109.271 153.582 109.271Z" fill="white"/>
<path d="M116.943 132.557C116.598 135.436 117.806 137.947 119.641 138.167C121.476 138.386 123.244 136.23 123.589 133.351C123.74 132.091 123.594 130.902 123.227 129.944L124.538 117.727L118.781 117.235L118.101 129.331C117.518 130.175 117.094 131.297 116.943 132.557Z" fill="#FFB6B6"/>
<path d="M118.324 59.6754C118.324 59.6754 124.593 57.8874 125.937 60.5694C127.28 63.2515 130.415 98.565 130.415 98.565L124.37 126.753L117.429 124.938L121.011 96.33L116.085 74.8736L118.324 59.6754Z" fill="#E6E6E6"/>
<path d="M26.1963 145.429C40.6641 145.429 52.3926 133.721 52.3926 119.279C52.3926 104.837 40.6641 93.1293 26.1963 93.1293C11.7285 93.1293 0 104.837 0 119.279C0 133.721 11.7285 145.429 26.1963 145.429Z" fill="#F9B42A"/>
<path d="M26.1963 107.573C28.0468 107.573 29.547 109.07 29.547 110.917V117.607H22.8456V110.917C22.8456 109.07 24.3458 107.573 26.1963 107.573ZM31.2224 117.607V110.917C31.2224 108.146 28.9721 105.9 26.1963 105.9C23.4205 105.9 21.1703 108.146 21.1703 110.917V117.607C19.3197 117.607 17.8196 119.104 17.8196 120.952V129.313C17.8196 131.161 19.3197 132.658 21.1703 132.658H31.2223C33.0729 132.658 34.573 131.161 34.573 129.313V120.952C34.573 119.104 33.0729 117.607 31.2224 117.607ZM21.1703 119.279H31.2223C32.1476 119.279 32.8977 120.028 32.8977 120.952V129.313C32.8977 130.237 32.1476 130.986 31.2223 130.986H21.1703C20.245 130.986 19.4949 130.237 19.4949 129.313V120.952C19.4949 120.028 20.245 119.279 21.1703 119.279Z" fill="white"/>
</g>
<defs>
<clipPath id="clip0_2137_302">
<rect width="253" height="229" fill="white"/>
</clipPath>
</defs>
</svg>
